# xmcd
#
# Track frame offsets: 
#        150
#        17650
#        32398
#        59595
#        77905
#        101660
#        118240
#        140096
#        169255
#        189625
#        213745
#        234175
#        253485
#
# Disc length: 3783 seconds
#
# Revision: 1
# Processed by: cddbd v1.5.2PL0 Copyright (c) Steve Scherf et al.
# Submitted via: ExactAudioCopy v1.0b4
#
DISCID=c00ec50d
DTITLE=Johnny Laws - Blues Burnin' In My Soul
DYEAR=1999
DGENRE=Blues
TTITLE0=Driving Wheel
TTITLE1=Sweet Sixteen
TTITLE2=Part Time Love
TTITLE3=Bad, Bad Whiskey
TTITLE4=Steal Away
TTITLE5=Ain't That Loving You Baby
TTITLE6=Little By Little
TTITLE7=I'll Take Care Of You
TTITLE8=Honest I Do
TTITLE9=Don't Drive Me Away
TTITLE10=Don't Worry About Me
TTITLE11=Easy Lovin'
TTITLE12=Sadie
EXTD=
EXTT0=
EXTT1=
EXTT2=
EXTT3=
EXTT4=
EXTT5=
EXTT6=
EXTT7=
EXTT8=
EXTT9=
EXTT10=
EXTT11=
EXTT12=
PLAYORDER=
